<svg width="408" height="83" viewBox="0 0 408 83" fill="none" xmlns="http://www.w3.org/2000/svg">
<g clip-path="url(#clip0_136_703)">
<path d="M44.5 48.7834H150.761L142.928 54.8554H51.7359L44.5 48.7834Z" fill="#009246" style="fill:#009246;fill:color(display-p3 0.0000 0.5725 0.2745);fill-opacity:1;"/>
<path d="M150.534 54.8554H257.466L249.587 48.7834H157.816L150.534 54.8554Z" fill="#F2F2F2" style="fill:#F2F2F2;fill:color(display-p3 0.9490 0.9490 0.9490);fill-opacity:1;"/>
<path d="M257.239 48.7834H363.5L355.667 54.8554H264.474L257.239 48.7834Z" fill="#CE2B37" style="fill:#CE2B37;fill:color(display-p3 0.8078 0.1686 0.2157);fill-opacity:1;"/>
<path d="M140.767 27.4737C137.43 26.9524 79.0189 15.276 78.229 15.1879C77.4392 15.0997 78.1404 13.9689 79.2847 13.62C80.4252 13.2712 81.8315 12.1404 83.3265 11.964C84.8215 11.7915 131.547 10.6569 131.547 10.6569L137.026 7.17236H75.8556C73.3974 7.17236 59.7809 14.7509 58.6404 15.4485C57.5 16.1462 56.5329 17.5377 59.7809 17.9747C63.029 18.4117 119.333 29.6472 120.211 29.8235C121.09 29.9999 123.259 29.9117 120.77 31.3914C119.86 31.9127 119.333 32.871 117.58 32.871H76.4721C73.6632 31.9127 49.4203 22.8507 49.4203 22.8507H44.5C44.5 22.8507 72.4303 38.621 73.1354 38.621H126.187C128.121 38.621 141.206 29.9079 141.996 29.559C142.786 29.2102 144.103 27.9912 140.767 27.4699V27.4737Z" fill="white" style="fill:white;fill-opacity:1;"/>
<path d="M158.421 7C158.421 7 154.029 10.8333 153.501 11.2703C152.973 11.7073 150.338 27.999 150.426 28.6928C150.515 29.3905 152.36 38.625 152.36 38.625H159.912C159.912 38.625 161.669 28.344 161.407 26.688C161.145 25.032 158.421 7 158.421 7Z" fill="white" style="fill:white;fill-opacity:1;"/>
<path d="M184.926 27.5197L185.296 27.2974C185.296 27.2974 185.169 27.3395 185.026 27.4354C185.014 27.443 185.007 27.4507 184.995 27.4584C184.972 27.4775 184.945 27.4967 184.922 27.5197H184.926Z" fill="white" style="fill:white;fill-opacity:1;"/>
<path d="M279.262 27.5236L279.597 27.3013C279.597 27.3013 279.424 27.3741 279.262 27.5236Z" fill="white" style="fill:white;fill-opacity:1;"/>
<path d="M255.266 27.2132C253.86 26.4274 234.363 14.6667 232.606 13.9691C230.85 13.2714 229.443 13.5321 228.303 13.5321C227.37 13.5321 217.06 13.5014 213.318 13.4899C213.318 13.4899 213.072 13.4899 212.644 13.4899C212.216 13.4899 211.97 13.4899 211.97 13.4899C208.225 13.5052 197.918 13.5397 196.986 13.5397C195.845 13.5397 194.439 13.2791 192.682 13.9767C190.925 14.6744 171.425 26.4351 170.022 27.2209C168.616 28.0067 170.022 29.2257 170.022 29.2257L184.868 38.6366H194.971C194.971 38.6366 186.714 30.8817 185.307 29.3139C184.429 28.3326 184.648 27.7959 184.937 27.5314L184.868 27.5736C184.887 27.5621 184.941 27.5237 185.011 27.4739C185.022 27.4662 185.03 27.4586 185.041 27.4509C186.533 26.3431 196.847 18.1627 196.847 18.1627H228.453C228.453 18.1627 233.015 21.9577 236.556 24.7407C236.571 24.9937 236.544 25.2851 236.201 25.3464C235.234 25.5189 194.882 25.3962 194.882 25.3962L191.807 27.7499L238.07 30.4754C238.07 30.4754 238.563 30.4946 237.754 31.2536C234.857 34.0864 230.329 38.6404 230.329 38.6404H240.432L255.277 29.2296C255.277 29.2296 256.684 28.0106 255.277 27.2247L255.266 27.2132Z" fill="white" style="fill:white;fill-opacity:1;"/>
<path d="M197.91 11.3547H227.37C228.95 11.3547 223.417 7.87017 221.66 7.52133C220.358 7.2645 215.661 7.09967 213.315 7.0345V7C213.315 7 213.06 7.00383 212.64 7.01533C212.22 7.00383 211.966 7 211.966 7V7.0345C209.623 7.09967 204.923 7.2645 203.62 7.52133C201.864 7.87017 196.331 11.3547 197.91 11.3547Z" fill="white" style="fill:white;fill-opacity:1;"/>
<path d="M361.816 21.9269C360.949 21.4976 333.404 7.14941 333.404 7.14941H323.009C323.009 7.14941 342.544 20.2939 344.62 21.5857C346.701 22.8737 346.308 23.3031 345.745 23.5637C345.183 23.8206 332.88 32.4992 332.318 32.9707C331.755 33.4422 330.673 33.3157 330.326 33.2007C329.979 33.0857 304.468 18.4079 303.297 17.7601C302.126 17.1122 294.72 13.1639 294.073 13.0834C293.422 13.0029 287.099 13.0834 287.099 13.0834C287.099 13.0834 287.092 13.0949 287.088 13.0949C286.259 13.0604 285.304 13.0719 284.19 13.5664C282.614 14.2641 265.103 26.4272 263.839 27.2131C262.575 27.9989 263.839 29.2179 263.839 29.2179L279.201 38.6288H290.694C290.694 38.6288 281.455 31.1499 279.597 29.3061C278.661 28.3784 278.95 27.8111 279.262 27.5236L279.204 27.5619C279.509 27.3626 284.483 22.4022 286.779 20.1061C287.477 19.4122 287.928 18.9561 287.928 18.9561L287.878 18.7721C289.134 17.5262 289.873 17.8291 290.043 17.9326C290.259 18.0629 325.082 38.6249 325.082 38.6249H335.52C335.52 38.6249 361.204 24.2039 361.809 23.7324C362.413 23.2609 362.675 22.3562 361.809 21.9269H361.816Z" fill="white" style="fill:white;fill-opacity:1;"/>
<path d="M121.113 64.5422H94.4347C92.7663 64.5422 91.4101 65.8877 91.4101 67.5514V72.9947C91.4101 74.6546 92.7625 76.0039 94.4347 76.0039H121.113C122.781 76.0039 124.137 74.6584 124.137 72.9947V67.5514C124.137 65.8916 122.785 64.5422 121.113 64.5422ZM120.978 72.7954C120.978 73.5621 120.354 74.1792 119.587 74.1792H96.2918C95.5212 74.1792 94.9009 73.5582 94.9009 72.7954V67.7507C94.9009 66.9841 95.525 66.3669 96.2918 66.3669H119.587C120.358 66.3669 120.978 66.9879 120.978 67.7507V72.7954Z" fill="white" style="fill:white;fill-opacity:1;"/>
<path d="M86.1045 68.2758V67.4325C86.1045 65.7727 84.7521 64.4233 83.0799 64.4233H53.3811V75.9962H56.8642V71.2812H72.1259L80.352 75.9962H85.5728L77.94 71.2812H83.0837C84.7521 71.2812 86.1083 69.9357 86.1083 68.272L86.1045 68.2758ZM82.945 68.0765C82.945 68.8432 82.3209 69.4603 81.5541 69.4603H58.259C57.4884 69.4603 56.8681 68.8393 56.8681 68.0765V67.6318C56.8681 66.8652 57.4922 66.248 58.259 66.248H81.5541C82.3247 66.248 82.945 66.869 82.945 67.6318V68.0765Z" fill="white" style="fill:white;fill-opacity:1;"/>
<path d="M159.303 64.5422H132.625C130.957 64.5422 129.601 65.8877 129.601 67.5514V76.0001H133.084V71.6761H159.165V76.0001H162.324V67.5514C162.324 65.8916 160.972 64.5422 159.3 64.5422H159.303ZM133.088 67.7507C133.088 66.9841 133.712 66.3669 134.479 66.3669H157.774C158.544 66.3669 159.165 66.9879 159.165 67.7507V69.7172H133.084V67.7507H133.088Z" fill="white" style="fill:white;fill-opacity:1;"/>
<path d="M196.504 64.4502H168.057V76H196.504C198.916 76 200.873 74.0527 200.873 71.653V68.7972C200.873 66.3975 198.916 64.4502 196.504 64.4502ZM197.698 70.9592C197.698 72.7609 196.23 74.2175 194.423 74.2175H171.433V66.8077H194.423C196.234 66.8077 197.698 68.2682 197.698 70.066V70.9554V70.9592Z" fill="white" style="fill:white;fill-opacity:1;"/>
<path d="M353.686 68.3908V67.5475C353.686 65.8877 352.334 64.5383 350.662 64.5383H321.102V75.9962H324.643V71.7795H341.411L348.55 75.9962H353.367L345.896 71.7795H350.658C352.326 71.7795 353.683 70.0507 353.683 68.387L353.686 68.3908ZM350.527 68.1953C350.527 68.962 349.903 69.5792 349.136 69.5792H324.647V66.7463H349.136C349.907 66.7463 350.527 66.984 350.527 67.7468V68.1915V68.1953Z" fill="white" style="fill:white;fill-opacity:1;"/>
<path d="M210.648 66.7464H238.956V64.5422H209.527C207.716 64.5422 206.252 66.0027 206.252 67.8006V71.8716H235.65V73.3742C235.65 73.8534 235.161 74.2406 234.56 74.2406H206.252V75.9962H235.681C237.492 75.9962 238.956 74.8309 238.956 73.3972V69.7134H209.558V67.8312C209.558 67.2294 210.047 66.7464 210.648 66.7464Z" fill="white" style="fill:white;fill-opacity:1;"/>
<path d="M277.132 64.5422H244.547V66.7464H259.034V76.0001H262.702V66.7464H277.132V64.5422Z" fill="white" style="fill:white;fill-opacity:1;"/>
<path d="M315.492 66.7464V64.5422H286.032H284.768H282.903V76.0001H284.768H286.032H315.492V73.7959H286.032V71.7834H301.902V69.5792H286.032V66.7464H315.492Z" fill="white" style="fill:white;fill-opacity:1;"/>
</g>
<defs>
<clipPath id="clip0_136_703">
<rect width="319" height="69" fill="white" style="fill:white;fill-opacity:1;" transform="translate(44.5 7)"/>
</clipPath>
</defs>
</svg>
