<svg width="408" height="83" viewBox="0 0 408 83" fill="none" xmlns="http://www.w3.org/2000/svg">
<g clip-path="url(#clip0_136_2353)">
<path d="M304.789 28.3758L306.005 27H294.32L293.961 28.3758H304.789Z" fill="white" style="fill:white;fill-opacity:1;"/>
<path d="M292.39 51.7654L301.057 45.3257L309.753 37.9819H296.291L299.597 33.9365H290.808L287.814 40.9909L298.854 40.8301L292.39 51.7654Z" fill="white" style="fill:white;fill-opacity:1;"/>
<path d="M384.374 50.5429C385.138 49.8568 386.511 48.824 386.749 48.363C386.987 47.902 387.513 46.4153 385.604 44.1783C383.694 41.9412 378.307 36.2091 377.373 35.237C376.439 34.2614 371.605 29.6586 371.348 29.6586H363.712C363.712 29.6586 368.423 35.237 369.185 36.327C369.949 37.4169 374.826 44.6964 375.125 45.2682C375.421 45.84 375.379 46.6441 373.385 49.2814C372.536 50.6001 371.644 51.0575 370.541 52.2046C370.076 52.2618 369.777 52.4905 368.505 51.229C367.233 49.9675 355.863 36.0947 355.141 35.237C354.419 34.3794 350.814 29.6729 350.43 29.6657C350.084 29.6586 344.966 29.6586 343.596 29.6586H343.302C342.75 29.6586 334.86 37.3026 333.546 38.85C332.231 40.3974 328.074 45.1539 327.732 45.8436C327.394 46.5297 327.563 47.8484 328.198 48.5953C328.632 49.1027 331.279 51.3577 333.104 52.8229H313.429C315.045 51.1897 317.182 48.8633 318.097 47.8591C319.549 46.2653 324.847 40.0436 324.889 39.579C324.932 39.118 325.103 37.6743 324.633 37.0953C324.162 36.5164 317.711 31.6706 317.711 31.6706C317.711 31.6706 313.823 29.6657 311.858 29.6657H281.527C279.562 29.6657 275.674 31.6706 275.674 31.6706C275.674 31.6706 269.224 36.52 268.753 37.0953C268.282 37.6743 268.454 39.1144 268.496 39.579C268.539 40.04 273.836 46.2653 275.288 47.8591C276.203 48.8633 278.34 51.1897 279.956 52.8229H260.914V29.6586H252.472V52.8193H237.401C232.405 52.7657 228.076 52.7192 227.93 52.7192C227.584 52.7192 226.328 52.1296 225.981 51.808C225.635 51.4899 221.043 48.195 220.739 47.6161H241.956V47.5768C242.337 47.5339 242.831 47.4446 242.961 47.273C243.178 46.98 244.087 45.7507 242.355 43.5279C240.623 41.3051 235.727 36.2698 234.862 35.2763C233.998 34.2829 229.448 30.3019 228.626 29.9516C227.803 29.6014 226.727 29.6586 226.727 29.6586H94.4624L94.4148 29.6407C94.4148 29.6407 88.6094 29.6157 87.9244 29.6586C87.2394 29.7015 81.7488 33.2501 80.0614 35.0333C78.3713 36.8166 80.0085 38.171 81.4869 38.5283C82.9654 38.8857 112.889 47.0872 114.103 47.6161C115.317 48.1486 115.105 48.3701 114.841 48.7239C114.576 49.0777 112.519 51.2898 111.937 51.8616C111.569 52.2225 110.625 52.5763 109.985 52.7836H71.6376C73.6742 51.4542 75.6154 50.1569 75.8799 49.8639C76.4618 49.2206 77.9905 47.5089 76.4089 45.3718C74.8273 43.2348 70.4448 37.5277 69.6011 36.813C68.7574 36.0983 64.5866 31.5062 63.9545 31.0916C63.3223 30.6807 61.6852 29.6979 60.4183 29.6515C59.2996 29.6121 50.3548 29.6407 48.2919 29.6515C46.5198 29.6443 38.7996 29.6157 37.6809 29.6515C36.414 29.6943 34.7769 30.6771 34.1448 31.0916C33.5126 31.5026 29.3418 36.0983 28.4981 36.813C27.6544 37.5277 23.2719 43.2312 21.6903 45.3718C20.1061 47.5125 21.6374 49.2242 22.2193 49.8639C22.8011 50.5072 31.455 55.9962 31.455 55.9962H40.9551C40.9551 55.9962 36.3637 51.2898 35.8348 50.7216C35.5042 50.3642 34.0442 48.8311 33.0022 47.6161H65.0997C64.0576 48.8311 62.5977 50.3642 62.2671 50.7216C61.7381 51.2933 57.1467 55.9962 57.1467 55.9962H116.954C119.17 55.9962 119.699 55.9927 120.702 55.3566C121.704 54.7205 125.928 51.8616 128.197 49.9354C130.149 47.5803 127.248 46.7977 126.245 46.5833C125.243 46.3689 93.9996 38.3104 92.7856 38.0245C91.5743 37.7386 91.4632 37.0274 91.9392 36.5986C92.4153 36.1698 94.4201 33.8898 94.8935 33.3895C95.3669 32.8892 97.6917 32.5318 97.6917 32.5318H137.102V55.9927H145.179V32.5389H167.787C167.459 32.8356 167.115 33.1393 166.872 33.3466C166.253 33.8719 158.197 41.0728 155.513 44.9359C152.828 48.799 157.287 50.6144 159.453 52.4869C160.749 53.6091 164.521 55.2958 165.431 55.646C166.113 55.9105 169.972 55.9748 171.852 55.9927V55.9998H199.869L196.703 52.9801H173.013C173.013 52.9801 171.715 52.5405 171.064 51.958C170.414 51.372 167.988 48.6882 167.554 48.1521C167.435 48.0056 167.332 47.8198 167.242 47.6161H186.547L188.755 44.5964H167.197C167.335 44.1747 167.507 43.7709 167.687 43.5457C168.12 42.999 175.613 33.754 176.047 33.4002C176.481 33.05 176.999 32.5318 178.385 32.5318H221.138C221.138 32.5318 223.175 32.5783 223.651 32.932C224.127 33.2823 228.155 38.9608 228.676 39.604C229.07 40.0936 230.718 43.049 231.617 44.5964H201.006L204.098 47.6161H208.057C208.057 47.6161 209.054 47.9163 209.485 48.2093C209.919 48.5023 213.342 51.0789 214.598 51.8973C215.854 52.7157 219.71 54.942 221.051 55.4674C222.072 55.8676 223.765 55.9641 224.709 55.9891V55.9962H343.091L348.351 55.9927C348.351 55.9927 340.758 48.5881 340.205 47.9592C339.653 47.3302 339.018 46.6405 339.653 45.0931C340.29 43.5457 346.185 35.1191 346.823 34.3722C347.46 33.6253 348.349 33.3394 349.454 34.6581C350.557 35.9768 366.892 55.9998 367.442 55.9962C367.994 55.9927 376.31 55.9962 376.31 55.9962C376.31 55.9962 383.607 51.2255 384.371 50.5357L384.374 50.5429ZM35.8401 39.7434C36.4219 38.8893 40.0083 34.1113 40.0083 34.1113C40.0083 34.1113 40.7991 32.614 41.9073 32.614C42.8488 32.614 47.07 32.564 48.3157 32.5461C49.8999 32.5604 55.2583 32.614 56.1999 32.614C57.308 32.614 58.0988 34.1113 58.0988 34.1113C58.0988 34.1113 61.6878 38.8893 62.2671 39.7434C62.6664 40.333 64.3776 42.9025 65.4038 44.5999H32.7033C33.7295 42.8989 35.4407 40.333 35.8401 39.7434ZM283.63 45.8114C282.604 44.2533 280.512 40.962 280.171 40.4438C279.829 39.9256 280.213 38.4247 281.11 37.442C282.006 36.4592 285.254 33.2858 285.553 33.0535C285.852 32.8213 286.836 32.7641 287.09 32.7641H306.312C306.569 32.7641 307.55 32.8213 307.849 33.0535C308.148 33.2858 311.395 36.4592 312.292 37.442C313.189 38.4247 313.575 39.9256 313.231 40.4438C312.89 40.962 310.795 44.2533 309.771 45.8114C308.859 47.198 305.304 51.7901 304.326 52.8193H289.073C288.095 51.7901 284.54 47.2015 283.627 45.8114H283.63Z" fill="white" style="fill:white;fill-opacity:1;"/>
</g>
<defs>
<clipPath id="clip0_136_2353">
<rect width="366" height="29" fill="white" style="fill:white;fill-opacity:1;" transform="translate(21 27)"/>
</clipPath>
</defs>
</svg>
