<svg width="408" height="83" viewBox="0 0 408 83" fill="none" xmlns="http://www.w3.org/2000/svg">
<g clip-path="url(#clip0_65_601)">
<path d="M341.001 12.1452L314.39 12.1402C312.682 12.1396 311.079 12.9613 310.078 14.348C308.021 17.1993 305.963 20.0501 303.906 22.9008C303.056 24.0778 303.894 25.7251 305.342 25.7251C313.961 25.7267 322.579 25.7284 331.196 25.73C330.166 27.1576 329.136 28.5852 328.105 30.0134H297.333C293.712 30.0134 291.617 25.896 293.74 22.9534C296.31 19.3933 298.879 15.8326 301.448 12.2719C303.451 9.49745 306.659 7.85516 310.073 7.85571C321.413 7.85737 332.752 7.85959 344.092 7.8618C343.061 9.2894 342.031 10.7176 341.001 12.1452Z" fill="white" style="fill:white;fill-opacity:1;"/>
<path d="M143.27 30.0053C134.233 30.0036 125.195 30.002 116.158 30.0003C112.537 29.9997 110.442 25.8824 112.565 22.9403C116.197 17.91 119.827 12.8791 123.457 7.84814C126.832 7.8487 130.208 7.8498 133.584 7.8498C129.965 12.8641 126.346 17.879 122.727 22.8933C121.878 24.0702 122.716 25.7175 124.164 25.7175H138.957C140.663 25.7175 142.266 24.8958 143.268 23.5091C147.033 18.2907 150.8 13.0722 154.565 7.85368C157.941 7.85423 161.316 7.85534 164.692 7.85589C160.426 13.7666 156.16 19.6773 151.894 25.5891C149.892 28.363 146.685 30.0058 143.27 30.0053Z" fill="white" style="fill:white;fill-opacity:1;"/>
<path d="M58.3074 25.7154C57.277 27.143 56.2466 28.5711 55.2162 29.9987H24.4432C20.8225 29.9987 18.7271 25.8814 20.8505 22.9388C23.4205 19.3786 25.9899 15.8179 28.5593 12.2578C30.5613 9.48336 33.769 7.84051 37.1831 7.84106C48.523 7.84328 59.8629 7.84549 71.2028 7.8477C70.1719 9.2753 69.1414 10.7035 68.111 12.1305C59.2412 12.1288 50.3707 12.1272 41.5003 12.1255C39.7932 12.125 38.1899 12.9467 37.1886 14.3344C35.1311 17.1852 33.0736 20.0354 31.0161 22.8868C30.167 24.0642 31.0046 25.7104 32.453 25.7104C41.0713 25.7121 49.6891 25.7137 58.3074 25.7154Z" fill="white" style="fill:white;fill-opacity:1;"/>
<path d="M376.468 14.9754C372.849 19.9897 369.23 25.004 365.611 30.0189L375.738 30.02C379.368 24.9896 382.999 19.9587 386.629 14.9284C388.752 11.9863 386.658 7.86841 383.038 7.86786C375.564 7.86675 368.089 7.86564 360.615 7.86398C362.735 4.92689 363.911 3.06714 366.03 0.130043C362.655 0.129489 359.397 0.130596 356.021 0.130043C348.573 10.4508 341.951 19.6915 334.504 30.0134C337.879 30.0139 341.254 30.0145 344.629 30.015C348.396 24.7965 352.161 19.5775 355.928 14.3596C356.928 12.9724 358.532 12.1512 360.238 12.1512H375.031C376.479 12.1512 377.317 13.7985 376.468 14.9754Z" fill="white" style="fill:white;fill-opacity:1;"/>
<path d="M211.423 30.0134H227.333C228.366 28.5824 229.398 27.151 230.431 25.72C226.767 25.7195 223.103 25.7189 219.438 25.7184C217.99 25.7178 217.152 24.0711 218.002 22.8942C220.59 19.3069 223.179 15.7196 225.767 12.1329C233.017 12.134 240.267 12.1352 247.517 12.1368C248.547 10.7087 249.578 9.28106 250.608 7.85346C243.358 7.8518 236.108 7.85069 228.859 7.84959C230.747 5.23398 232.635 2.61727 234.522 0.00166C231.147 0.00110667 227.772 0.000553333 224.396 0C218.874 7.65094 213.353 15.3019 207.831 22.9534C205.708 25.896 207.803 30.0134 211.423 30.0134Z" fill="white" style="fill:white;fill-opacity:1;"/>
<path d="M276.28 24.2553C275.613 25.1805 274.544 25.7283 273.406 25.7277C268.174 25.7266 262.942 25.7261 257.71 25.7249C256.262 25.7249 255.424 24.0782 256.273 22.9013C256.358 22.7834 256.443 22.6656 256.528 22.5483C257.196 21.6236 258.264 21.0758 259.402 21.0764C265.792 21.0769 272.182 21.0786 278.572 21.0797C277.808 22.1382 277.045 23.1968 276.28 24.2553ZM289.554 7.86003C278.704 7.85837 267.854 7.85615 257.004 7.85449C255.974 9.28209 254.944 10.7102 253.913 12.1378C263.125 12.1395 272.336 12.1412 281.547 12.1428C282.996 12.1428 283.833 13.7901 282.984 14.967C282.544 15.5763 282.104 16.1866 281.664 16.7964C273.106 16.7947 264.549 16.793 255.992 16.7919C252.577 16.7908 249.37 18.4337 247.367 21.2081C246.948 21.7902 246.528 22.3717 246.108 22.9533C243.985 25.8959 246.08 30.0133 249.7 30.0133H276.818C280.231 30.0133 283.438 28.3704 285.44 25.5966C288.009 22.0375 290.577 18.4796 293.145 14.9206C295.268 11.9785 293.174 7.86113 289.554 7.86003Z" fill="white" style="fill:white;fill-opacity:1;"/>
<path d="M207.23 14.921C203.599 19.9519 199.969 24.9828 196.339 30.0131C192.963 30.0126 189.587 30.012 186.212 30.0115C189.831 24.9966 193.45 19.9823 197.069 14.9686C197.918 13.7911 197.08 12.1438 195.632 12.1438H178.122C173.825 18.0988 169.527 24.0532 165.23 30.0082C161.855 30.0076 158.479 30.0065 155.104 30.0065C160.432 22.6228 165.761 15.2386 171.09 7.85547C181.94 7.85713 192.789 7.85879 203.638 7.861C207.259 7.86156 209.353 11.9795 207.23 14.921Z" fill="white" style="fill:white;fill-opacity:1;"/>
<path d="M101.806 14.9523C99.7486 17.803 97.6911 20.6544 95.6336 23.5046C94.6323 24.8923 93.0285 25.7135 91.3214 25.7129C86.9845 25.7118 82.6476 25.7113 78.3112 25.7102C76.8629 25.7102 76.0252 24.064 76.8744 22.8865C78.9319 20.0357 80.9894 17.185 83.0464 14.3342C84.0476 12.9464 85.6515 12.1253 87.3591 12.1258C91.6955 12.1269 96.0324 12.1275 100.369 12.128C101.817 12.128 102.655 13.7753 101.806 14.9523ZM108.375 7.8458C99.9304 7.84414 91.4856 7.84248 83.0414 7.84082C79.6273 7.84027 76.4196 9.48311 74.417 12.2575C71.8482 15.8177 69.2788 19.3784 66.7094 22.9391C64.5859 25.8811 66.6808 29.9985 70.3015 29.9985H95.6396C99.0533 29.9985 102.26 28.3568 104.262 25.5823C106.83 22.0233 109.398 18.4648 111.967 14.9058C114.09 11.9637 111.995 7.8458 108.375 7.8458Z" fill="white" style="fill:white;fill-opacity:1;"/>
<path d="M330.039 44.8828C330.693 44.8831 330.948 45.7406 330.4 46.1025L302.441 64.5479C302.363 64.5988 302.399 64.7213 302.492 64.7217H310.992C311.029 64.7215 311.062 64.6995 311.077 64.666L311.759 63.1445C312.063 62.4641 312.735 62.027 313.476 62.0273L326.434 62.0312C326.952 62.0312 327.298 62.5689 327.088 63.0459L326.348 64.7217H329.597C330.073 64.7217 330.391 65.2146 330.199 65.6533L326.471 74.1719C326.32 74.516 325.981 74.7383 325.608 74.7383H322.579C322.206 74.7384 321.869 74.9596 321.718 75.3037L318.803 81.9609C318.652 82.3045 318.313 82.5273 317.94 82.5273L304.353 82.5254C303.667 82.5254 303.211 81.8102 303.497 81.1816L306.434 74.7285C306.462 74.6661 306.416 74.5947 306.348 74.5947H277.615C276.938 74.5947 276.482 73.8958 276.751 73.2695L280.8 63.8408C281.061 63.2323 281.498 62.7167 282.053 62.3604L308.842 45.1504C309.114 44.9762 309.43 44.8828 309.753 44.8828H330.039ZM309.881 47.0332L283.202 64.1729C283.005 64.2996 282.853 64.4801 282.76 64.6953L279.434 72.4434H308.16C308.938 72.4434 309.455 73.2551 309.131 73.9678L306.213 80.375L317.163 80.376L319.764 74.4365C320.256 73.3123 321.36 72.587 322.579 72.5869H324.831L327.332 66.8721H323.063L324.249 64.1816L313.64 64.1777L313.037 65.5195C312.685 66.3411 311.882 66.8719 310.992 66.8721H302.626C301.67 66.872 300.748 66.3281 300.41 65.4268C300.034 64.4248 300.392 63.3308 301.272 62.7471L325.09 47.0332H309.881Z" fill="white" style="fill:white;fill-opacity:1;"/>
<path d="M263.962 65.5976L265.201 62.3445C265.24 62.2405 265.339 62.1719 265.45 62.1719H272.981C273.168 62.1719 273.297 62.3606 273.23 62.5371L271.992 65.7901C271.953 65.8941 271.853 65.9628 271.743 65.9628H264.211C264.023 65.9628 263.895 65.7735 263.962 65.5976Z" fill="white" style="fill:white;fill-opacity:1;"/>
<path d="M215.018 67.2631C214.946 67.4274 214.784 67.5353 214.61 67.5353H206.387C206.27 67.5353 206.196 67.4174 206.243 67.3084L208.994 60.9761C209.065 60.8123 209.228 60.7038 209.402 60.7038H217.642C217.759 60.7038 217.833 60.8212 217.785 60.9313L215.018 67.2631ZM226.027 57.3169H202.966C201.904 57.3169 200.943 57.9516 200.519 58.9321L196.053 69.2578C195.746 69.9689 196.263 70.7634 197.032 70.7634H220.68C221.471 70.7634 222.188 70.2909 222.505 69.5588L227.078 58.9852C227.427 58.1829 226.882 57.3169 226.027 57.3169Z" fill="white" style="fill:white;fill-opacity:1;"/>
<path d="M152.595 57.3176H143.577C143.514 57.3176 143.456 57.3553 143.431 57.4145L137.821 70.3874C137.744 70.565 137.873 70.7642 138.066 70.7642H146.898C146.951 70.7288 146.992 70.7022 147.045 70.6673L152.741 57.5434C152.788 57.4371 152.71 57.3176 152.595 57.3176ZM152 57.871L146.644 70.2108H138.497L143.832 57.871H152Z" fill="white" style="fill:white;fill-opacity:1;"/>
<path d="M139.015 57.3176C139.131 57.3176 139.208 57.4371 139.162 57.5434L135.981 64.8811C135.569 65.8279 134.634 66.4559 133.624 66.4559H122.825L124.266 63.1238H129.171C129.235 63.1238 129.292 63.0856 129.318 63.0264L130.217 60.9292C130.263 60.823 130.186 60.704 130.07 60.704H120.67C120.605 60.704 120.548 60.7417 120.522 60.8009L116.243 70.6673C116.217 70.7254 116.159 70.7642 116.096 70.7642H107.263C107.071 70.7642 106.942 70.565 107.019 70.3874L112.628 57.4145C112.653 57.3553 112.711 57.3176 112.775 57.3176H139.015Z" fill="white" style="fill:white;fill-opacity:1;"/>
<path d="M104.517 67.7683L103.256 70.6594C103.228 70.7258 103.171 70.7634 103.086 70.7634H77.0479C76.8502 70.7634 76.7283 70.5576 76.8035 70.3866L82.4136 57.4137C82.4389 57.3551 82.4971 57.3169 82.5603 57.3169H91.5708C91.6834 57.3169 91.7685 57.4403 91.7213 57.5443L87.4821 67.3101C87.4349 67.4141 87.5107 67.5375 87.6233 67.5375H104.367C104.485 67.5375 104.564 67.6598 104.517 67.7683Z" fill="white" style="fill:white;fill-opacity:1;"/>
<path d="M185.337 62.2803C185.311 62.339 185.254 62.3771 185.19 62.3771H176.746C176.642 62.3771 176.573 62.2704 176.614 62.1757L177.209 60.8007C177.235 60.742 177.292 60.7039 177.355 60.7039L185.783 60.7022C185.896 60.7022 185.978 60.8212 185.924 60.9352L185.337 62.2803ZM183.084 67.4379C183.058 67.4971 183.001 67.5348 182.937 67.5348L174.527 67.5359C174.414 67.5359 174.335 67.4219 174.388 67.3085L175.03 65.8117C175.061 65.7547 175.12 65.7071 175.196 65.7071L183.6 65.7043C183.714 65.7043 183.792 65.8183 183.739 65.9323L183.084 67.4379ZM163.217 57.9472L167.709 60.5816C167.826 60.6507 167.874 60.7968 167.819 60.9219L164.241 69.1499C163.882 70.1376 164.413 70.764 165.311 70.764H188.832C189.614 70.764 190.322 70.2965 190.634 69.5749L195.209 58.9907C195.562 58.184 195.014 57.3208 194.157 57.3208L167.151 57.318C166.936 57.318 166.723 57.2655 166.532 57.1642L165.186 56.4543C165.148 56.4343 165.121 56.3956 165.116 56.3519L164.814 53.8923L163.108 57.6019C163.051 57.7275 163.097 57.8774 163.217 57.9472Z" fill="white" style="fill:white;fill-opacity:1;"/>
<path d="M246.66 67.2631C246.589 67.4275 246.427 67.5354 246.253 67.5354H238.029C237.913 67.5354 237.838 67.4175 237.886 67.3085L240.637 60.9762C240.708 60.8124 240.87 60.7039 241.044 60.7039H249.284C249.401 60.7039 249.475 60.8212 249.427 60.9314L246.66 67.2631ZM264.073 53.8918L261.618 56.3326C261.569 56.3818 261.51 56.4206 261.446 56.4471L259.59 57.2163C259.429 57.2827 259.257 57.317 259.083 57.317H234.609C233.546 57.317 232.585 57.9517 232.161 58.9322L227.696 69.2579C227.388 69.9689 227.905 70.7635 228.674 70.7635H252.323C253.114 70.7635 253.831 70.291 254.147 69.5589L257.907 60.8644C257.953 60.7598 258.029 60.6729 258.127 60.6148L262.768 57.8758C262.825 57.8421 262.868 57.7879 262.888 57.7242L264.073 53.8918Z" fill="white" style="fill:white;fill-opacity:1;"/>
</g>
<defs>
<clipPath id="clip0_65_601">
<rect width="368" height="83" fill="white" style="fill:white;fill-opacity:1;" transform="translate(20)"/>
</clipPath>
</defs>
</svg>
