<svg width="408" height="83" viewBox="0 0 408 83" fill="none" xmlns="http://www.w3.org/2000/svg">
<g clip-path="url(#clip0_136_2545)">
<path d="M92.6377 51.7482C92.6377 51.7482 69.5764 52.1505 68.6279 52.0984C67.6794 52.0492 66.5809 51.2967 66.63 49.9451C66.6617 49.0479 66.8491 46.4778 66.9874 44.6573L271.079 42.6545V41.4853L70.3635 39.5953C71.2745 38.8226 72.0212 38.2206 72.0212 38.2206C72.0212 38.2206 79.4075 31.5552 79.7073 31.3063C80.0072 31.0545 81.1056 30.7563 82.1031 30.8056C83.1006 30.8548 107.139 30.8634 107.139 30.8634V33.1065L124.114 27.4946C124.114 27.4946 79.2662 25.0055 77.5912 25.0055C75.9161 25.0055 73.9182 24.7364 70.6748 27.5409C67.9302 29.9141 59.9788 36.9066 57.1045 39.4651L27.689 39.1872L23.5 45.0828L53.4113 44.7905C53.3104 47.2332 53.074 53.3227 53.1547 54.0028C53.2556 54.8537 55.2017 58.0026 57.8483 58.0026C60.4949 58.0026 107.214 55.858 107.214 55.858L93.788 49.8438L92.6405 51.7482H92.6377Z" fill="white" style="fill:white;fill-opacity:1;"/>
<path d="M114.064 39.005H123.515C123.515 39.005 125.322 37.0716 126.023 36.7214C126.724 36.3712 127.191 35.9602 128.182 35.9602C129.174 35.9602 154.262 36.6635 154.611 36.6635H154.96L154.083 32.1543C154.083 32.1543 128.004 30.8664 126.548 30.7477C125.092 30.6291 122.757 31.3931 120.306 33.3236C117.855 35.2569 114.064 39.005 114.064 39.005Z" fill="white" style="fill:white;fill-opacity:1;"/>
<path d="M138.452 47.792C137.693 47.8499 109.924 48.4374 109.924 48.4374L109.575 53.592C109.575 53.592 137.463 52.4199 138.979 52.362C140.496 52.3041 142.946 51.6587 143.471 51.3085C143.996 50.9583 152.339 44.9238 152.339 44.9238H142.831C141.488 45.9455 139.213 47.7341 138.455 47.7949L138.452 47.792Z" fill="white" style="fill:white;fill-opacity:1;"/>
<path d="M170.54 39.7057H179.99L181.74 36.2529L195.801 36.7797L194.982 31.9231C194.982 31.9231 168.265 30.7828 167.04 30.7365C165.814 30.6902 163.073 31.6279 161.032 33.2661C158.99 34.9071 158.232 35.8419 158.232 35.8419L172.641 36.1313L170.543 39.7028L170.54 39.7057Z" fill="white" style="fill:white;fill-opacity:1;"/>
<path d="M161.963 53.0044L171.183 52.6513L176.311 44.6313H167.386L161.963 53.0044Z" fill="white" style="fill:white;fill-opacity:1;"/>
<path d="M210.864 36.2731C211.308 35.9663 227.332 36.1718 228.151 36.2731C228.97 36.3744 230.4 37.7463 230.469 38.4293C230.538 39.1152 230.469 40.2787 230.469 40.2787H239.775C239.775 40.2787 239.297 36.9069 239.026 36.111C238.755 35.3151 238.686 32.1662 233.467 31.8247C228.252 31.4832 210.761 30.6612 209.772 30.7625C206.805 31.0027 204.827 32.8174 202.645 34.7334C200.463 36.6494 197.055 39.7057 197.055 39.7057L206.534 40.0385C206.534 40.0385 210.42 36.5828 210.864 36.2731Z" fill="white" style="fill:white;fill-opacity:1;"/>
<path d="M223.308 47.5693C222.797 47.8095 221.739 47.9108 220.341 47.9108C218.943 47.9108 205.75 48.1163 205.136 48.0468C204.522 47.9774 203.83 47.3291 203.666 46.7473C203.501 46.1656 203.666 44.5217 203.666 44.5217V44.3509H194.126C194.126 44.3509 194.091 49.4158 194.126 49.9628C194.16 50.5098 194.809 53.5372 199.716 53.5372C204.623 53.5372 224.025 52.4953 224.876 52.2551C227.364 52.0148 233.756 46.9007 237.607 44.0586C234.37 44.0586 227.773 44.1425 227.773 44.1425C227.773 44.1425 223.818 47.3262 223.308 47.5664V47.5693Z" fill="white" style="fill:white;fill-opacity:1;"/>
<path d="M284.805 36.111C284.491 34.9417 283.984 32.1488 279.284 31.8362C274.585 31.5236 256.883 30.8522 255.747 30.8145C254.611 30.774 252.38 31.5236 250.068 33.4107C247.758 35.2977 242.549 40.2816 242.549 40.2816H251.947C251.947 40.2816 256.177 36.4785 256.609 36.3223C257.039 36.166 258.607 36.0849 259.233 36.1255C259.858 36.166 273.449 36.2441 274.115 36.4004C274.781 36.5567 275.995 37.2455 276.231 38.1977C276.468 39.1528 276.897 41.746 276.779 42.0615C276.661 42.377 269.104 47.96 269.104 47.96H268.712L266.832 45.0889H260.605L262.721 47.96H251.403C250.696 47.96 248.857 47.9194 249.641 43.9891C247.721 43.9891 239.781 43.8704 239.781 43.8704C239.781 43.8704 239.672 49.1784 239.781 49.847C239.891 50.5156 241.926 53.3866 244.472 53.3866C247.017 53.3866 266.051 52.4836 266.051 52.4836L269.459 56.8481H274.942L271.849 52.1682L286.301 42.3394C286.301 42.3394 285.125 37.286 284.814 36.1168L284.805 36.111Z" fill="white" style="fill:white;fill-opacity:1;"/>
<path d="M322.832 31.6769L324.282 42.1743C324.282 42.1743 317.311 47.326 316.801 47.5199C316.291 47.7168 313.356 47.7949 312.416 47.7949C311.476 47.7949 299.687 48.148 298.866 48.0322C298.044 47.9165 297.026 47.0887 296.986 45.8297C296.946 44.5707 297.182 42.0962 297.182 42.0962C297.182 42.0962 309.911 31.0084 310.144 30.8926C310.38 30.7739 300.864 30.6553 300.864 30.6553L287.861 42.0556C287.861 42.0556 287.706 49.0944 287.665 49.5662C287.625 50.0379 288.919 53.3402 292.442 53.3402C295.965 53.3402 317.429 52.3967 318.329 52.1999C319.228 52.0031 321.578 50.8252 323.146 49.6443C324.712 48.4635 333.955 42.0556 333.955 42.0556L331.565 31.9895L322.832 31.674V31.6769Z" fill="white" style="fill:white;fill-opacity:1;"/>
<path d="M384.5 32.2965C384.5 32.2965 354.811 30.7596 351.155 30.858C347.499 30.9565 346.314 32.6438 345.179 33.486C344.043 34.3282 335.396 41.9979 335.396 41.9979C335.396 41.9979 335.099 47.8182 335.099 48.6113C335.099 49.4043 335.938 53.1581 339.793 53.3404C343.648 53.5228 371.31 52.0322 371.31 52.0322L362.073 47.6764L361.43 49.0078C361.43 49.0078 347.104 49.4043 346.559 49.3551C346.015 49.3059 344.435 48.7097 344.484 46.5766C344.533 44.4436 344.582 43.254 344.879 43.1556C345.176 43.0572 362.367 42.7591 362.367 42.7591L362.168 41.5204L346.162 41.1239C346.162 41.1239 352.98 34.9244 353.473 34.9244C353.966 34.9244 371.307 35.1733 371.307 35.1733V36.4121L384.497 32.2965H384.5Z" fill="white" style="fill:white;fill-opacity:1;"/>
</g>
<defs>
<clipPath id="clip0_136_2545">
<rect width="361" height="33" fill="white" style="fill:white;fill-opacity:1;" transform="translate(23.5 25)"/>
</clipPath>
</defs>
</svg>
