<svg width="409" height="56" viewBox="0 0 409 56" fill="none" xmlns="http://www.w3.org/2000/svg">
<path d="M142.35 45.9966L135.74 51.2801H25.4845L18.875 45.9966H142.35Z" fill="#018B45" style="fill:#018B45;fill:color(display-p3 0.0039 0.5451 0.2706);fill-opacity:1;"/>
<path d="M143.136 51.2801L149.745 45.9966H260.005L266.614 51.2801H143.136Z" fill="#F3F8FC" style="fill:#F3F8FC;fill:color(display-p3 0.9529 0.9725 0.9882);fill-opacity:1;"/>
<path d="M390.875 45.9966L384.266 51.2801H274.01L267.4 45.9966H390.875Z" fill="#CC202A" style="fill:#CC202A;fill:color(display-p3 0.8000 0.1255 0.1647);fill-opacity:1;"/>
<path d="M386.017 4.98633L379.07 12.581L373.914 14.0453H343.097L330.917 32.6422L334.085 36.4885H365.496L376.516 19.6662L382.953 14.9225L386.02 4.98633H386.017ZM357.689 32.6422H341.238L350.989 17.7566H367.44L357.689 32.6422Z" fill="white" style="fill:white;fill-opacity:1;"/>
<path d="M291.294 17.7567L288.237 14.0454H256.631L244.448 32.6424L247.616 36.4886H276.058L282.731 32.6424H254.772L258.372 27.1429H274.823L278.524 21.4916H262.073L264.522 17.7567H291.294Z" fill="white" style="fill:white;fill-opacity:1;"/>
<path d="M77.1761 17.7569L79.6053 14.0456H42.6813L39.692 13.0706L39.1117 4.93945L35.0124 14.9228L39.9788 17.8143L27.7484 36.4888H38.0692L44.1894 27.1431H60.6406L64.3418 21.4918H47.8906L50.3367 17.7569H77.1761Z" fill="white" style="fill:white;fill-opacity:1;"/>
<path d="M119.458 17.7567L116.398 14.0454H84.791L72.6112 32.6424L75.7793 36.4886H104.221L110.892 32.6424H82.932L86.5353 27.1429H102.986L106.688 21.4916H90.2365L92.6826 17.7567H119.458Z" fill="white" style="fill:white;fill-opacity:1;"/>
<path d="M245.746 14.0454H238.526L227.686 18.9072L223.796 14.042L208.006 14.0454L211.063 17.7567L198.795 36.4886H209.099L219.197 21.0665L224.113 27.1631L235.766 21.9336L226.279 36.4211V36.4886H236.539L248.807 17.7567L245.746 14.0454Z" fill="white" style="fill:white;fill-opacity:1;"/>
<path d="M158.487 14.0454H154.02L144.641 28.3676L137.549 14.0454H121.455L124.775 17.8883L112.592 36.4886H122.896L132.275 22.163L139.367 36.4886H149.627L161.804 17.8883L158.487 14.0454Z" fill="white" style="fill:white;fill-opacity:1;"/>
<path d="M331.211 14.0454H326.744L317.364 28.3676L310.272 14.0454H294.179L297.495 17.8883L285.312 36.4886H295.62L304.999 22.163L312.091 36.4886H322.348L334.527 17.8883L331.211 14.0454Z" fill="white" style="fill:white;fill-opacity:1;"/>
<path d="M201.623 14.0454H170.431L158.244 32.6424L161.561 36.4886H192.759L204.939 17.8917L201.623 14.0454ZM184.972 32.6491H168.548L178.214 17.8883H194.639L184.972 32.6491Z" fill="white" style="fill:white;fill-opacity:1;"/>
</svg>
