<svg width="408" height="83" viewBox="0 0 408 83" fill="none" xmlns="http://www.w3.org/2000/svg">
<g clip-path="url(#clip0_136_1263)">
<path d="M50.1199 44.9524H153.372L148.282 47.4768H54.7662L50.1199 44.9524Z" fill="#009246" style="fill:#009246;fill:color(display-p3 0.0000 0.5725 0.2745);fill-opacity:1;"/>
<path d="M261.072 44.9524H364.324L359.234 47.4768H265.718L261.072 44.9524Z" fill="#CE2B37" style="fill:#CE2B37;fill:color(display-p3 0.8078 0.1686 0.2157);fill-opacity:1;"/>
<path d="M156.171 47.4768H259.423L254.337 44.9524H160.817L156.171 47.4768Z" fill="#F2F2F2" style="fill:#F2F2F2;fill:color(display-p3 0.9490 0.9490 0.9490);fill-opacity:1;"/>
<path d="M104.759 64.4834H102.861V75.9999H106.656V71.8297H136.099V69.3177H106.656V66.9995H136.099V64.4834H106.656H104.759Z" fill="white" style="fill:white;fill-opacity:1;"/>
<path d="M316.62 64.4834H283.282V66.9995H309.092L296.901 75.9999H301.232L313.261 66.9995H313.356L316.62 64.4834Z" fill="white" style="fill:white;fill-opacity:1;"/>
<path d="M174.81 64.7598L166.776 69.3177H149.22V64.4834H145.425V75.9999H149.22V71.8297H166.423L173.76 75.6947L178.825 75.674L169.533 70.65L179.872 64.7845L174.81 64.7598Z" fill="white" style="fill:white;fill-opacity:1;"/>
<path d="M271.045 64.6733H241.133V67.1895H269.451C270.099 67.1895 271.004 67.1111 271.004 67.3545C271.004 67.5978 271.012 68.6538 271.004 69.223C271 69.6644 269.982 69.5901 269.982 69.5901H250.571V71.6938H269.858C271.091 71.6938 271.004 71.9454 271.004 72.1888V73.7727C271.004 74.247 270.31 74.2182 269.534 74.1769C268.758 74.1357 241.133 74.0944 241.133 74.0944V76.0042H271.618C273.865 76.0042 274.317 74.7874 274.317 74.3007V71.2112C274.317 70.4605 273.254 70.8853 273.296 70.4398C273.337 69.9944 274.317 70.3945 274.317 69.223V66.6326C274.317 65.3746 272.474 64.6857 271.05 64.6857L271.045 64.6733Z" fill="white" style="fill:white;fill-opacity:1;"/>
<path d="M217.449 64.4834H188.122V75.9958H191.452V71.4956H214.547C214.547 71.4956 217.848 71.4956 218.246 71.4956C218.649 71.4956 221.29 70.98 221.261 69.3837C221.232 67.7874 221.261 67.1604 221.261 66.5623C221.261 65.9642 220.343 64.4834 217.445 64.4834H217.449ZM217.935 68.5876C217.935 68.7567 217.657 68.9836 217.245 68.9836H191.452V66.9995H217.245C217.648 66.9995 217.906 67.1357 217.935 67.3914C217.964 67.6471 217.935 68.4185 217.935 68.5876Z" fill="white" style="fill:white;fill-opacity:1;"/>
<path d="M139.923 27.9663C136.51 27.4301 76.7936 15.4764 75.9839 15.3856C75.1742 15.2949 75.8926 14.1358 77.0635 13.7811C78.2303 13.4222 79.6669 12.2631 81.1949 12.0858C82.7229 11.9084 130.498 10.7493 130.498 10.7493L136.099 7.17725H73.559C71.0428 7.17725 57.1247 14.9402 55.9579 15.6538C54.7912 16.3673 53.8029 17.7945 57.1247 18.24C60.4464 18.6855 118.012 30.1937 118.909 30.3711C119.806 30.5485 122.023 30.4619 119.478 31.9757C118.548 32.5119 118.012 33.4936 116.214 33.4936H74.186C71.3127 32.5119 46.5283 23.2352 46.5283 23.2352H41.5C41.5 23.2352 70.0587 39.3838 70.7771 39.3838H125.017C126.994 39.3838 140.372 30.4619 141.182 30.1071C141.991 29.7483 143.337 28.5026 139.923 27.9663Z" fill="white" style="fill:white;fill-opacity:1;"/>
<path d="M157.973 7C157.973 7 153.484 10.9268 152.945 11.3723C152.405 11.8178 149.71 28.5027 149.801 29.2163C149.893 29.9299 151.778 39.3881 151.778 39.3881H159.501C159.501 39.3881 161.299 28.8616 161.029 27.1662C160.759 25.4709 157.977 7.00412 157.977 7.00412L157.973 7Z" fill="white" style="fill:white;fill-opacity:1;"/>
<path d="M185.074 28.0118L185.452 27.7849C185.452 27.7849 185.319 27.8262 185.178 27.9293C185.166 27.9375 185.157 27.9458 185.149 27.9499C185.124 27.9705 185.099 27.987 185.074 28.0118Z" fill="white" style="fill:white;fill-opacity:1;"/>
<path d="M281.526 28.0159L281.87 27.7891C281.87 27.7891 281.696 27.8633 281.526 28.0159Z" fill="white" style="fill:white;fill-opacity:1;"/>
<path d="M256.99 27.6984C255.554 26.894 235.619 14.8537 233.821 14.1401C232.023 13.4265 230.586 13.6946 229.42 13.6946C228.465 13.6946 217.926 13.6616 214.098 13.6492C214.098 13.6492 213.845 13.6492 213.409 13.6492C212.969 13.6492 212.72 13.6492 212.72 13.6492C208.891 13.6657 198.353 13.6987 197.398 13.6987C196.231 13.6987 194.795 13.4306 192.997 14.1442C191.199 14.8578 171.264 26.9023 169.828 27.7025C168.391 28.5068 169.828 29.7525 169.828 29.7525L185.004 39.3881H195.33C195.33 39.3881 186.889 31.4478 185.452 29.8433C184.555 28.841 184.78 28.2882 185.074 28.016L185.004 28.0572C185.025 28.0449 185.078 28.0036 185.149 27.9541C185.157 27.9459 185.17 27.9376 185.178 27.9335C186.702 26.7992 197.249 18.4258 197.249 18.4258H229.565C229.565 18.4258 234.232 22.3114 237.849 25.1616C237.861 25.4174 237.836 25.7185 237.487 25.7803C236.499 25.9577 195.239 25.8298 195.239 25.8298L192.096 28.2387L239.397 31.0271C239.397 31.0271 239.9 31.0477 239.078 31.8273C236.117 34.7271 231.487 39.3922 231.487 39.3922H241.814L256.99 29.7567C256.99 29.7567 258.427 28.5068 256.99 27.7066V27.6984Z" fill="white" style="fill:white;fill-opacity:1;"/>
<path d="M198.349 11.4589H228.469C230.084 11.4589 224.429 7.89094 222.631 7.53208C221.298 7.26809 216.498 7.10309 214.098 7.03297V6.99585C214.098 6.99585 213.837 6.99997 213.409 7.01235C212.977 6.99997 212.72 6.99585 212.72 6.99585V7.03297C210.324 7.10309 205.52 7.26809 204.187 7.53208C202.389 7.89094 196.734 11.4589 198.349 11.4589Z" fill="white" style="fill:white;fill-opacity:1;"/>
<path d="M365.931 22.2866C365.047 21.8452 336.882 7.15259 336.882 7.15259H326.253C326.253 7.15259 346.225 20.616 348.351 21.9318C350.477 23.2476 350.078 23.6931 349.501 23.9571C348.924 24.2211 336.347 33.106 335.774 33.5927C335.197 34.0753 334.092 33.9433 333.735 33.8278C333.378 33.7123 307.298 18.6773 306.102 18.0174C304.906 17.3574 297.333 13.3109 296.669 13.2284C296.004 13.146 289.539 13.2284 289.539 13.2284C289.539 13.2284 289.531 13.2367 289.531 13.2408C288.684 13.2078 287.708 13.2202 286.57 13.7234C284.959 14.437 267.055 26.894 265.764 27.6942C264.472 28.4985 265.764 29.7442 265.764 29.7442L281.467 39.3798H293.218C293.218 39.3798 283.772 31.7241 281.87 29.835C280.915 28.8863 281.206 28.3047 281.526 28.0118L281.467 28.0489C281.779 27.8427 286.865 22.765 289.215 20.418C289.925 19.7044 290.39 19.2424 290.39 19.2424L290.341 19.0527C291.628 17.7781 292.379 18.0875 292.554 18.1906C292.774 18.3226 328.379 39.3798 328.379 39.3798H339.05C339.05 39.3798 365.308 24.613 365.931 24.1303C366.554 23.6477 366.816 22.7238 365.931 22.2824V22.2866Z" fill="white" style="fill:white;fill-opacity:1;"/>
</g>
<defs>
<clipPath id="clip0_136_1263">
<rect width="325" height="69" fill="white" style="fill:white;fill-opacity:1;" transform="translate(41.5 7)"/>
</clipPath>
</defs>
</svg>
