<svg width="408" height="83" viewBox="0 0 408 83" fill="none" xmlns="http://www.w3.org/2000/svg">
<g clip-path="url(#clip0_136_1881)">
<path d="M2.67055 52.1616H132.867L129.151 53.6972H0L2.67055 52.1616Z" fill="#009246" style="fill:#009246;fill:color(display-p3 0.0000 0.5725 0.2745);fill-opacity:1;"/>
<path d="M139.655 52.1616H269.855L266.135 53.6972H136.984L139.655 52.1616Z" fill="#F2F2F2" style="fill:#F2F2F2;fill:color(display-p3 0.9490 0.9490 0.9490);fill-opacity:1;"/>
<path d="M276.639 52.1616H406.839L403.119 53.6972H273.972L276.639 52.1616Z" fill="#CE2B37" style="fill:#CE2B37;fill:color(display-p3 0.8078 0.1686 0.2157);fill-opacity:1;"/>
<path d="M0 34.1952H26.5682C29.2499 34.1952 32.4434 29.3252 32.4434 29.3252H4.80698C3.57927 29.3252 0 34.1952 0 34.1952Z" fill="white" style="fill:white;fill-opacity:1;"/>
<path d="M124.885 34.1952C124.885 34.1952 121.272 29.3252 118.869 29.3252H95.0232C95.0232 29.3252 100.09 34.1952 101.191 34.1952H124.885Z" fill="white" style="fill:white;fill-opacity:1;"/>
<path d="M13.6606 47.3254C13.6606 47.3254 18.7495 42.3107 18.7495 41.3092V35.6714H13.6606V47.3254Z" fill="white" style="fill:white;fill-opacity:1;"/>
<path d="M57.821 29.3251C56.6897 29.2769 39.5278 29.3251 38.8861 29.3251C38.2444 29.3251 33.8195 34.1952 33.8195 34.1952H62.7838C62.7838 34.1952 58.9523 29.3734 57.821 29.3251Z" fill="white" style="fill:white;fill-opacity:1;"/>
<path d="M57.6949 42.0436C57.1719 41.6875 56.5525 41.4946 55.9183 41.4946H33.8195C33.8195 41.4946 38.2444 46.3647 38.8861 46.3647C39.5278 46.3647 61.8528 46.4129 62.9841 46.3647C63.878 46.3276 59.5495 43.3084 57.6949 42.0436Z" fill="white" style="fill:white;fill-opacity:1;"/>
<path d="M47.9363 35.6675H33.8232V40.5746H41.5455C44.2569 40.5746 47.9363 36.7505 47.9363 35.6675Z" fill="white" style="fill:white;fill-opacity:1;"/>
<path d="M87.3083 40.5747C87.5123 40.4338 92.2451 37.537 91.9076 36.3204C91.57 35.1001 86.4997 29.325 83.959 29.325C83.9367 29.3213 83.9145 29.3213 83.8959 29.325H63.9744C63.9744 29.325 67.6279 33.4792 69.5158 34.1951C69.7828 34.2952 77.8538 34.2656 83.525 34.2322C84.4708 34.2285 85.0124 35.6713 85.0124 35.6713H75.4577C72.7464 35.6713 69.067 39.4954 69.067 40.5784H81.077L87.108 47.329H94.1441C94.1441 47.329 87.108 40.7231 87.312 40.5784L87.3083 40.5747Z" fill="white" style="fill:white;fill-opacity:1;"/>
<path d="M120.66 41.4945H106.659L124.885 35.6675H111.258C111.258 35.6675 97.5936 40.8825 96.4438 41.3053C95.294 41.7281 95.3607 42.4737 96.4438 43.3527C97.5268 44.2318 100.706 46.383 101.651 46.383H126.139C127.018 46.383 121.743 41.4908 120.66 41.4908V41.4945Z" fill="white" style="fill:white;fill-opacity:1;"/>
<path d="M134.525 33.8837H157.388C157.388 33.8837 153.805 29.3252 151.372 29.3252H132.363C131.754 29.3252 128.372 32.2628 128.372 33.5461V42.2736C128.372 42.8819 130.875 46.387 132.871 46.387H151.98C153.197 46.387 157.392 44.0614 157.392 41.3093V35.6715H152.318V41.6653H133.917C133.917 41.6653 132.867 41.3835 132.867 40.5786V35.104C132.867 34.4957 133.171 33.8874 134.525 33.8874V33.8837Z" fill="white" style="fill:white;fill-opacity:1;"/>
<path d="M402.926 41.6653H384.525C384.525 41.6653 383.476 41.3835 383.476 40.5786V35.104C383.476 34.4957 383.78 33.8874 385.133 33.8874H407.996C407.996 33.8874 404.413 29.3252 401.98 29.3252H382.971C382.363 29.3252 378.98 32.2628 378.98 33.5461V42.2736C378.98 42.8819 381.484 46.387 383.479 46.387H402.588C403.805 46.387 408 44.0614 408 41.3093V35.6715H402.926V41.6653Z" fill="white" style="fill:white;fill-opacity:1;"/>
<path d="M198.384 29.325H189.657C188.17 29.325 186.682 32.4629 186.141 32.4629C185.599 32.4629 183.366 29.325 182.487 29.325C181.608 29.325 173.964 29.351 173.289 29.325C172.614 29.299 169.502 32.6669 169.502 34.195V46.3868L174.372 41.7319V35.1001C174.372 34.6958 175.117 34.1913 175.588 34.1913C176.059 34.1913 180.392 34.017 181.271 34.1913C182.15 34.3657 185.354 37.7632 185.262 37.8522C185.169 37.9412 185.262 47.3215 185.262 47.3215C185.262 47.3215 189.928 42.5405 189.928 41.7282C189.928 40.9159 189.861 38.212 189.861 36.8582C189.861 35.5043 190.132 33.8835 191.148 33.8835C192.164 33.8835 196.493 33.8835 197.372 34.1913C198.251 34.4992 201.025 37.7372 201.025 38.8203C201.025 39.9033 201.159 47.3215 201.159 47.3215C201.159 47.3215 205.625 43.0153 205.758 42.3365C205.892 41.6577 205.691 36.7209 204.946 35.6638C204.2 34.6067 199.601 29.3213 198.384 29.3213V29.325Z" fill="white" style="fill:white;fill-opacity:1;"/>
<path d="M210.291 35.8458V47.3254C210.291 47.3254 214.957 42.1401 214.957 40.9903V29.3252C212.115 30.6493 210.291 34.9667 210.291 35.8458Z" fill="white" style="fill:white;fill-opacity:1;"/>
<path d="M369.759 35.8458V47.3254C369.759 47.3254 374.425 42.1401 374.425 40.9903V29.3252C371.584 30.6493 369.759 34.9667 369.759 35.8458Z" fill="white" style="fill:white;fill-opacity:1;"/>
<path d="M239.04 41.7321H223.751V29.3252C222.464 29.7703 218.814 34.3881 218.814 34.9667V41.5949C218.814 42.2699 222.872 46.387 223.751 46.387H245.06C245.06 46.387 240.731 41.7321 239.04 41.7321Z" fill="white" style="fill:white;fill-opacity:1;"/>
<path d="M266.502 41.7321H251.213V29.3252C249.926 29.7703 246.276 34.3881 246.276 34.9667V41.5949C246.276 42.2699 250.334 46.387 251.213 46.387H272.522C272.522 46.387 268.193 41.7321 266.502 41.7321Z" fill="white" style="fill:white;fill-opacity:1;"/>
<path d="M297.636 29.3251C296.505 29.2769 279.343 29.3251 278.701 29.3251C278.059 29.3251 273.634 34.1952 273.634 34.1952H302.599C302.599 34.1952 298.767 29.3734 297.636 29.3251Z" fill="white" style="fill:white;fill-opacity:1;"/>
<path d="M297.514 42.0436C296.991 41.6875 296.371 41.4946 295.737 41.4946H273.638C273.638 41.4946 278.063 46.3647 278.705 46.3647C279.346 46.3647 301.671 46.4129 302.803 46.3647C303.697 46.3276 299.368 43.3084 297.514 42.0436Z" fill="white" style="fill:white;fill-opacity:1;"/>
<path d="M287.755 35.6675H273.642V40.5746H281.364C284.076 40.5746 287.755 36.7505 287.755 35.6675Z" fill="white" style="fill:white;fill-opacity:1;"/>
<path d="M325.506 29.3252H309.52C307.183 29.3252 305.225 33.3013 305.225 34.1952V46.387C305.225 46.387 310.054 42.5444 310.054 41.7321V37.0549C310.054 34.555 310.228 34.1952 310.826 34.1952C311.423 34.1952 323.062 34.173 324.475 34.1952C325.128 34.1952 328.173 37.3813 328.392 38.6869C328.525 39.4918 328.392 47.3254 328.392 47.3254C328.392 47.3254 333.284 42.7113 333.284 42.0585C333.284 41.4057 333.447 37.9266 333.284 36.7842C333.121 35.6418 327.791 29.3252 325.51 29.3252H325.506Z" fill="white" style="fill:white;fill-opacity:1;"/>
<path d="M358.024 29.3252H342.038C339.701 29.3252 337.742 33.3013 337.742 34.1952V46.387C337.742 46.387 342.572 42.5444 342.572 41.7321V37.0549C342.572 34.555 342.746 34.1952 343.343 34.1952C343.94 34.1952 355.579 34.173 356.993 34.1952C357.645 34.1952 360.691 37.3813 360.909 38.6869C361.043 39.4918 360.909 47.3254 360.909 47.3254C360.909 47.3254 365.802 42.7113 365.802 42.0585C365.802 41.4057 365.965 37.9266 365.802 36.7842C365.638 35.6418 360.309 29.3252 358.027 29.3252H358.024Z" fill="white" style="fill:white;fill-opacity:1;"/>
</g>
<defs>
<clipPath id="clip0_136_1881">
<rect width="408" height="24.3947" fill="white" style="fill:white;fill-opacity:1;" transform="translate(0 29.3027)"/>
</clipPath>
</defs>
</svg>
